<svg xmlns="http://www.w3.org/2000/svg" viewBox="0 0 100 100">
      <g>
        <path d="M50,0C22.4,0,0,22.4,0,50s22.4,50,50,50s50-22.4,50-50S77.6,0,50,0z M50,90C26.1,90,10,73.9,10,50S26.1,10,50,10s40,16.1,40,40S73.9,90,50,90z" fill="#1a1f71"/>
        <path d="M50,14.1c-19.8,0-35.9,16.1-35.9,35.9S30.2,85.9,50,85.9s35.9-16.1,35.9-35.9S69.8,14.1,50,14.1z M50,78.7c-15.8,0-28.7-12.9-28.7-28.7S34.2,21.3,50,21.3s28.7,12.9,28.7,28.7S65.8,78.7,50,78.7z" fill="#1a1f71"/>
        <path d="M64.3,54.7c0,2.8-2.3,5.1-5.1,5.1H40.8c-2.8,0-5.1-2.3-5.1-5.1v-9.3c0-2.8,2.3-5.1,5.1-5.1h18.4c2.8,0,5.1,2.3,5.1,5.1V54.7z" fill="#f7dc6f"/>
        <path d="M40.8,40.6h18.4c1.4,0,2.6-1.1,2.6-2.6v-9.3c0-1.4-1.1-2.6-2.6-2.6H40.8c-1.4,0-2.6,1.1-2.6,2.6v9.3C38.2,39.5,39.4,40.6,40.8,40.6z" fill="#f7dc6f"/>
        <path d="M50,35.5c1.4,0,2.6,1.1,2.6,2.6s-1.1,2.6-2.6,2.6s-2.6-1.1-2.6-2.6S48.6,35.5,50,35.5z" fill="#f7dc6f"/>
        <path d="M41.4,61.4l4.7-9.3c0.4-0.8,1.4-0.8,1.8,0l4.7,9.3c0.4,0.8-0.1,1.7-0.9,1.7H42.3C41.5,63.1,41,62.2,41.4,61.4z" fill="#f7dc6f"/>
        <path d="M50,10l5.7,17.4L67,32l17.4,2.5L73,50l10.4,14.5l-17.4,2.5L61,67L55.7,84.5L50,90l-5.7-17.4L38,68l-6.3-4.5L10,50l6.3-4.5L22,32l6.3-4.5L50,10 M50,0L22.4,27.6L0,50l22.4,22.4L50,100l27.6-22.4L100,50L77.6,27.6L50,0L50,0z" fill="#f7dc6f"/>
        <path d="M50.4,13.8l-2.3,7.1c-0.3,0.9,0.1,1.9,0.9,2.2l7.1,2.3c0.9,0.3,1.9-0.1,2.2-0.9l2.3-7.1c0.3-0.9-0.1-1.9-0.9-2.2l-7.1-2.3C52.3,13.4,51.3,13,50.4,13.8z" fill="#f7dc6f"/>
      </g>
    </svg>
